<?xml version="1.0" encoding="UTF-8"?>
<svg version="1.1" xmlns="http://www.w3.org/2000/svg" width="1024" height="1024">
<path d="M0 0 C337.92 0 675.84 0 1024 0 C1024 337.92 1024 675.84 1024 1024 C686.08 1024 348.16 1024 0 1024 C0 686.08 0 348.16 0 0 Z " fill="#FFFFFF" transform="translate(0,0)"/>
<path d="M0 0 C1.02312286 0.00054382 2.04624573 0.00108765 3.10037231 0.00164795 C18.3433627 0.03893839 32.7662748 0.72422122 47.625 4.375 C48.56666016 4.58930664 49.50832031 4.80361328 50.47851562 5.02441406 C70.55531356 9.60064504 89.50731613 16.59689379 107.625 26.375 C108.78 26.98859375 109.935 27.6021875 111.125 28.234375 C124.75754709 35.7322759 137.3248817 44.67727771 148.625 55.375 C149.97396373 56.5476787 151.32795411 57.71460634 152.6875 58.875 C191.22469157 92.6143886 214.53336105 144.73013471 218.625 195.375 C218.96212544 201.62165591 218.96598241 207.87104205 218.9375 214.125 C218.93476578 215.37724365 218.93476578 215.37724365 218.93197632 216.65478516 C218.88613364 229.14310616 218.29484681 241.1412145 215.625 253.375 C215.25770184 255.19008178 214.89052014 257.00518712 214.5234375 258.8203125 C206.60279956 296.7152574 189.28225918 330.4530608 163.625 359.375 C163.13209473 359.93106934 162.63918945 360.48713867 162.13134766 361.06005859 C126.63497896 400.84933004 74.95140279 427.17042002 21.625 431.375 C18.47077097 431.51738806 15.32125137 431.56144351 12.1640625 431.578125 C11.29341156 431.58382507 10.42276062 431.58952515 9.52572632 431.59539795 C7.69213039 431.60477612 5.85851815 431.61135302 4.02490234 431.61523438 C1.29102138 431.62485563 -1.44207854 431.65591362 -4.17578125 431.6875 C-20.37785774 431.78570437 -36.1491703 429.94239937 -51.8125 425.6875 C-52.7600415 425.43403809 -53.70758301 425.18057617 -54.68383789 424.91943359 C-71.49964954 420.26566784 -88.4989201 413.86655106 -103.31640625 404.51953125 C-109.9467788 402.03843399 -118.84064944 406.82072972 -125.27734375 409.078125 C-126.83129601 409.61853424 -126.83129601 409.61853424 -128.41664124 410.16986084 C-131.71640538 411.31831903 -135.01445533 412.47161452 -138.3125 413.625 C-140.49273009 414.38442602 -142.67306774 415.14354331 -144.85351562 415.90234375 C-146.99482986 416.64832788 -149.13610634 417.3944204 -151.27734375 418.140625 C-152.8428598 418.68584557 -152.8428598 418.68584557 -154.44000244 419.24208069 C-159.14394359 420.88371258 -163.84228451 422.53704867 -168.52441406 424.23999023 C-169.68947227 424.66106049 -169.68947227 424.66106049 -170.87806702 425.09063721 C-172.2842377 425.60035906 -173.68845436 426.11552455 -175.09007263 426.63763428 C-180.01251323 428.417787 -185.19311052 429.76185424 -190.375 428.375 C-192.27295814 426.79628367 -193.26973028 425.58553943 -194.375 423.375 C-194.98401608 415.5495893 -193.23313017 408.41152198 -191.38129997 400.85886765 C-190.82968772 398.60697674 -190.29145646 396.35224239 -189.75648499 394.09634399 C-188.42671771 388.49963878 -187.0771291 382.90776847 -185.72332764 377.3168335 C-184.57585794 372.57695322 -183.43837405 367.83491218 -182.31503487 363.08925247 C-181.78692956 360.87610898 -181.24428297 358.66686375 -180.70115662 356.45736694 C-180.37673972 355.09204133 -180.05305703 353.72654098 -179.73022461 352.36083984 C-179.44376572 351.17775238 -179.15730682 349.99466492 -178.86216736 348.77572632 C-177.84250982 341.65789263 -179.78723002 337.10583272 -183.75 331.375 C-214.13589816 285.00118897 -224.4994629 224.3760905 -213.4453125 170.31152344 C-207.60966486 143.36677411 -197.60022892 116.87608701 -181.375 94.375 C-180.92688965 93.74335938 -180.4787793 93.11171875 -180.01708984 92.4609375 C-173.53113413 83.36523514 -166.59409794 74.88691167 -158.81884766 66.86572266 C-157.42378934 65.4253733 -156.04553922 63.96880267 -154.66796875 62.51171875 C-123.82108978 30.58090846 -79.92293598 9.47444102 -36.375 2.375 C-35.42882812 2.20129883 -34.48265625 2.02759766 -33.5078125 1.84863281 C-22.36697606 -0.01370606 -11.26937521 -0.02247134 0 0 Z " fill="#009775" transform="translate(511.375,174.625)"/>
<path d="M0 0 C1.23878906 -0.00686325 2.47757812 -0.0137265 3.75390625 -0.02079773 C7.12410264 -0.03587463 10.49374172 -0.03758396 13.86392999 -0.03185534 C16.69152861 -0.02874449 19.51907824 -0.03487709 22.34666985 -0.04089409 C29.02591455 -0.05489834 35.70503125 -0.05341334 42.38427734 -0.04199219 C49.24172058 -0.03052437 56.09877208 -0.04457323 62.9561637 -0.07138866 C68.87332012 -0.09364866 74.7903545 -0.10015974 80.70754975 -0.09431225 C84.2285073 -0.09096479 87.74921412 -0.09320797 91.27013588 -0.11056328 C95.20368022 -0.12910929 99.13675466 -0.11473998 103.0703125 -0.09765625 C104.21410873 -0.10732422 105.35790497 -0.11699219 106.53636169 -0.12695312 C122.42080526 0.01651064 136.46602219 6.09791599 147.9440918 16.99389648 C160.39813274 30.12918411 164.5704456 45.43618811 164.42456055 63.09155273 C164.42173065 64.3897998 164.41890076 65.68804687 164.41598511 67.02563477 C164.40840441 70.45167965 164.3888049 73.87755085 164.36657715 77.30352783 C164.34599774 80.80966849 164.33695771 84.31583764 164.3269043 87.82202148 C164.30555281 94.68276923 164.27148541 101.54340261 164.22924805 108.40405273 C163.0097496 108.40769836 161.79025116 108.41134399 160.53379822 108.4151001 C148.98614019 108.45219844 137.43874518 108.51013199 125.8912878 108.58795547 C119.95599777 108.62730021 114.02085323 108.65955223 108.08544922 108.67504883 C102.34697541 108.69030133 96.60890193 108.72489807 90.87060738 108.77236176 C88.69203757 108.78708739 86.51341059 108.79508863 84.33479118 108.79593658 C66.72794349 108.80966922 52.15521413 110.0706916 37.22924805 120.40405273 C36.5022168 120.90420898 35.77518555 121.40436523 35.02612305 121.91967773 C23.10142455 131.21530884 18.26819156 145.43405987 14.22924805 159.40405273 C13.10647461 159.45303711 11.98370117 159.50202148 10.8269043 159.55249023 C6.2888641 159.76742869 1.7596489 160.06607557 -2.77075195 160.40405273 C-4.16487305 160.50073242 -4.16487305 160.50073242 -5.5871582 160.59936523 C-11.57464642 161.43482871 -14.58242319 164.68900571 -18.5871582 169.04077148 C-20.55398649 171.16944969 -22.56076632 173.03541141 -24.77075195 174.90405273 C-27.74215405 177.45096881 -30.52219205 180.11784133 -33.27075195 182.90405273 C-36.72107524 186.39601786 -40.25277322 189.71761424 -43.99731445 192.89233398 C-45.50749012 194.17964232 -46.95878178 195.53550971 -48.39575195 196.90405273 C-50.77075195 198.40405273 -50.77075195 198.40405273 -53.95825195 198.40405273 C-56.77075195 197.40405273 -56.77075195 197.40405273 -57.92981911 195.71256924 C-58.97303103 192.84875917 -59.02849783 190.51774829 -59.03817749 187.4677887 C-59.04670746 186.25261063 -59.05523743 185.03743256 -59.06402588 183.78543091 C-59.06332685 182.44158923 -59.06240379 181.09774764 -59.0612793 179.75390625 C-59.06726517 178.33600002 -59.07407086 176.91809705 -59.08163452 175.50019836 C-59.09930694 171.64842811 -59.10399073 167.79674673 -59.10526609 163.94493985 C-59.10668883 161.53400772 -59.11096101 159.12309809 -59.11626053 156.71217155 C-59.13477281 148.28759202 -59.14293063 139.86307576 -59.14135742 131.43847656 C-59.14015931 123.6098469 -59.16119329 115.78149442 -59.19284475 107.9529348 C-59.21910127 101.2163879 -59.22972064 94.47993089 -59.2284466 87.74333328 C-59.22793923 83.72708555 -59.23349547 79.71108353 -59.2548027 75.69488716 C-59.2743409 71.90840209 -59.27420482 68.12239287 -59.25976944 64.33588982 C-59.25672082 62.3047133 -59.27325278 60.27353595 -59.29064941 58.24243164 C-59.18051801 41.95627033 -53.76160101 28.32343903 -42.77075195 16.40405273 C-30.36786801 4.79154865 -16.81022957 -0.06581075 0 0 Z " fill="#F8F3EA" transform="translate(436.770751953125,253.595947265625)"/>
<path d="M0 0 C0.90529953 -0.0071553 1.81059906 -0.01431061 2.74333191 -0.02168274 C4.22232719 -0.02571609 4.22232719 -0.02571609 5.73120117 -0.02983093 C6.77564896 -0.03640213 7.82009674 -0.04297333 8.89619446 -0.04974365 C12.35552037 -0.06946494 15.81480281 -0.08113899 19.27416992 -0.09111023 C21.05002472 -0.09722352 21.05002472 -0.09722352 22.86175537 -0.10346031 C29.13252589 -0.12431973 35.40327456 -0.13861996 41.67407227 -0.147995 C48.13214991 -0.15903687 54.58988086 -0.19341193 61.0478363 -0.23316669 C66.02891655 -0.25939453 71.00991513 -0.26769251 75.99105835 -0.27127647 C78.37033418 -0.27612934 80.74960669 -0.28770593 83.1288147 -0.30631447 C100.19419175 -0.43145236 114.53220291 -0.16850346 127.61791992 12.18232727 C137.73092379 22.88022502 140.7741235 34.35488732 140.73632812 48.74409485 C140.74143906 49.76310883 140.74654999 50.7821228 140.7518158 51.83201599 C140.76562494 55.17280579 140.76476263 58.51338748 140.76245117 61.85420227 C140.76634074 64.18588334 140.77067594 66.51756371 140.7754364 68.84924316 C140.78287832 73.72193202 140.78262047 78.59454837 140.77734375 83.46723938 C140.77152887 89.71629233 140.78853866 95.96505084 140.81168842 102.21405506 C140.82639861 107.02238707 140.82730156 111.83064751 140.8241787 116.63899803 C140.82469252 118.94392674 140.82994166 121.24885939 140.83999062 123.55376625 C140.85229502 126.76844817 140.84560097 129.98254761 140.83398438 133.19721985 C140.84162811 134.15052689 140.84927185 135.10383392 140.85714722 136.08602905 C140.8056857 142.5127711 140.8056857 142.5127711 139.06066895 145.73075867 C136.43125107 148.0599283 134.2897473 147.83788595 130.90063477 147.67695618 C126.33791508 146.6858549 123.24896846 143.81795822 119.77416992 140.83467102 C117.58374222 139.03517522 115.39267063 137.23769161 113.18608093 135.45802307 C110.46166992 133.14717102 110.46166992 133.14717102 107.71430969 130.37745667 C99.1034872 122.09431283 91.66026845 120.78062728 79.93673706 120.8510437 C77.83826453 120.89841437 75.73980482 120.94635608 73.64135742 120.99482727 C71.44810324 121.00308243 69.25482237 121.00586613 67.06155396 121.003479 C61.32116399 121.00911128 55.5833322 121.07668926 49.84362793 121.16145325 C40.65394738 121.28780376 31.46367777 121.32378268 22.27325821 121.35053825 C19.0844347 121.36942408 15.89712833 121.41782588 12.70870972 121.47067261 C-2.6121229 121.64359737 -15.08297616 119.9283464 -26.72973633 109.11201477 C-33.72357614 101.80905497 -37.60577373 93.08340053 -37.71533203 82.94233704 C-37.72816727 81.90347855 -37.7410025 80.86462006 -37.75422668 79.79428101 C-37.76161362 78.67452377 -37.76900055 77.55476654 -37.77661133 76.40107727 C-37.78468307 75.23898239 -37.79275482 74.07688751 -37.80107117 72.87957764 C-37.81490391 70.41581204 -37.82562968 67.95202734 -37.83349609 65.48823547 C-37.84497843 62.98524811 -37.8653701 60.4822845 -37.89501953 57.97944641 C-37.93801906 54.34898862 -37.95391397 50.71925921 -37.96411133 47.08857727 C-37.98161942 45.98703812 -37.9991275 44.88549896 -38.01716614 43.75057983 C-37.98143435 30.71585562 -34.49222848 20.39470812 -25.50317383 11.02607727 C-18.45990899 4.25609608 -9.88206746 0.05382943 0 0 Z " fill="#F7F3E9" transform="translate(508.538330078125,382.8528289794922)"/>
<path d="M0 0 C5.30674479 4.42024588 10.07852367 9.20498452 14.29394531 14.68701172 C12.90070687 18.00337454 11.42375514 19.62103653 8.48535156 21.66748047 C7.73833984 22.19148437 6.99132812 22.71548828 6.22167969 23.25537109 C5.44115234 23.7896875 4.660625 24.32400391 3.85644531 24.87451172 C3.07978516 25.42042969 2.303125 25.96634766 1.50292969 26.52880859 C-4.27039621 30.54179222 -4.27039621 30.54179222 -7.70605469 31.68701172 C-8.10695313 31.17912109 -8.50785156 30.67123047 -8.92089844 30.14794922 C-14.85956119 22.95691541 -22.05067074 16.60069132 -31.67797852 15.45166016 C-44.30644172 14.64672773 -54.49327788 16.12695953 -64.58105469 24.37451172 C-73.5226768 33.00836061 -77.703502 43.28802484 -78.05761719 55.55664062 C-78.19796509 70.55924664 -75.39015191 82.72225512 -64.95605469 93.99951172 C-56.14768529 102.36746265 -46.52337951 104.17831092 -34.82714844 103.96435547 C-25.08411453 103.51529566 -16.70166068 99.04814986 -10.10449219 91.96826172 C-8.9290319 90.57609646 -7.81028987 89.1363204 -6.70605469 87.68701172 C-1.99624515 89.29634818 1.8306935 91.85775537 5.91894531 94.62451172 C6.58667969 95.06730469 7.25441406 95.51009766 7.94238281 95.96630859 C11.00958942 98.02440423 13.7346013 100.00489296 16.29394531 102.68701172 C5.16858725 117.85230427 -9.22529144 126.97491284 -27.70605469 130.68701172 C-31.77921577 131.12079784 -35.79933209 131.21181941 -39.89355469 131.18701172 C-40.98418213 131.1820166 -42.07480957 131.17702148 -43.19848633 131.171875 C-61.73730533 130.77466351 -75.54678725 123.60135201 -88.70605469 110.68701172 C-89.33382812 110.08373047 -89.96160156 109.48044922 -90.60839844 108.85888672 C-104.54114374 94.32586441 -108.32409879 75.53452235 -108.10449219 56.10620117 C-107.57612409 36.36562246 -100.55165486 19.64010373 -86.55371094 5.51513672 C-63.68602442 -15.86554734 -25.45138361 -19.58751303 0 0 Z " fill="#019573" transform="translate(330.7060546875,670.31298828125)"/>
<path d="M0 0 C7.04724991 6.25995496 11.45851696 16.1866695 12.13771057 25.46310425 C12.25977195 29.81027003 12.2129134 34.15587003 12.16796875 38.50390625 C12.16236409 40.10529684 12.15809811 41.70669261 12.15510559 43.30809021 C12.1437252 47.49535665 12.11431786 51.68230419 12.08099365 55.8694458 C12.05014484 60.15315438 12.0365688 64.43691516 12.02148438 68.72070312 C11.98944053 77.10563043 11.93672947 85.49023864 11.875 93.875 C2.965 93.875 -5.945 93.875 -15.125 93.875 C-15.62 89.42 -15.62 89.42 -16.125 84.875 C-16.99898437 85.56335938 -16.99898437 85.56335938 -17.890625 86.265625 C-30.03522228 95.35497768 -42.25178051 97.4790084 -57.125 95.875 C-60.87154767 95.05066689 -63.85235221 93.8571131 -67.125 91.875 C-67.84945313 91.45089844 -68.57390625 91.02679687 -69.3203125 90.58984375 C-75.14103115 86.73442309 -78.64509505 81.57864695 -80.73828125 74.92578125 C-82.52495929 65.45097347 -80.90005834 56.67115667 -75.5625 48.6875 C-67.53341804 38.71076945 -54.2707302 35.45664691 -42.125 33.875 C-37.55766231 33.6551619 -33.00867278 33.68326755 -28.4375 33.75 C-26.65182617 33.76353516 -26.65182617 33.76353516 -24.83007812 33.77734375 C-21.92816633 33.80065228 -19.02669683 33.83336877 -16.125 33.875 C-16.25840036 32.44344616 -16.3991558 31.01257657 -16.54296875 29.58203125 C-16.6205542 28.78514893 -16.69813965 27.9882666 -16.77807617 27.16723633 C-17.56572599 21.96298292 -20.16508486 18.2161784 -24.125 14.875 C-30.18487843 12.85504052 -37.62567037 12.74720401 -43.71875 14.7109375 C-47.61946364 16.87961785 -49.50480954 19.02235283 -51.125 23.1875 C-51.455 24.404375 -51.785 25.62125 -52.125 26.875 C-60.54067099 26.2987919 -68.80448259 25.25727951 -77.125 23.875 C-76.53836726 15.66214163 -73.95813655 8.86164015 -68.125 2.875 C-48.95048204 -12.89469701 -20.48585497 -13.93038138 0 0 Z " fill="#029572" transform="translate(553.125,705.125)"/>
<path d="M0 0 C8.91 0 17.82 0 27 0 C27.33 17.16 27.66 34.32 28 52 C30.64 49.36 33.28 46.72 36 44 C39.046875 42.16015625 39.046875 42.16015625 41.75 41.0625 C42.65234375 40.68222656 43.5546875 40.30195312 44.484375 39.91015625 C55.13761494 36.0558008 65.69601898 37.74084481 76 42 C85.73700505 46.99409364 93.159426 55.1930048 96.53831482 65.66900635 C97.16979009 68.85725001 97.11912941 71.90494048 97.11352539 75.15527344 C97.11367142 75.86786819 97.11381744 76.58046295 97.1139679 77.31465149 C97.11327291 79.66292395 97.10549994 82.01111645 97.09765625 84.359375 C97.0957906 85.99033566 97.09436739 87.62129688 97.09336853 89.2522583 C97.08955494 93.53974969 97.07973454 97.82720708 97.06866455 102.11468506 C97.05842553 106.49181661 97.05386557 110.86895367 97.04882812 115.24609375 C97.03811123 123.83074649 97.02052381 132.41536509 97 141 C87.76 141 78.52 141 69 141 C68.98541748 139.03208496 68.97083496 137.06416992 68.95581055 135.03662109 C68.90408998 128.52255092 68.83878543 122.00872676 68.76428509 115.49487877 C68.71962556 111.54689972 68.68035996 107.59902282 68.65356445 103.65087891 C68.62748701 99.83813174 68.58705389 96.02577855 68.53681374 92.21327591 C68.5201749 90.76133768 68.50864206 89.30933134 68.50238609 87.85731125 C68.49271195 85.81770629 68.46461634 83.77910243 68.43237305 81.73974609 C68.42126999 80.58058685 68.41016693 79.42142761 68.39872742 78.22714233 C67.7967477 73.35495614 65.95006671 69.27074256 62.0625 66.1875 C56.83070897 62.45050641 51.29382635 62.21664822 45 63 C39.00318083 64.93529765 34.46301102 67.69859384 30.9375 72.9609375 C27.53508655 80.36118674 27.65989958 87.55780059 27.5859375 95.58984375 C27.56657135 96.88950577 27.5472052 98.18916779 27.5272522 99.5282135 C27.47618655 102.96234179 27.4364252 106.39650901 27.39910889 109.83081055 C27.35890769 113.34368277 27.30799285 116.85639911 27.2578125 120.36914062 C27.16035433 127.24603275 27.08063354 134.12280778 27 141 C18.09 141 9.18 141 0 141 C0 94.47 0 47.94 0 0 Z " fill="#019572" transform="translate(359,658)"/>
<path d="M0 0 C10.23 0 20.46 0 31 0 C36.69990746 15.85189276 36.69990746 15.85189276 39.12695312 22.60351562 C40.7837356 27.21239288 42.44059403 31.82124274 44.09790039 36.42993164 C45.433882 40.14508554 46.76952662 43.86036043 48.1049366 47.57571983 C48.61475663 48.99394746 49.12469854 50.41213128 49.63476372 51.83027077 C50.34854633 53.81487299 51.06189739 55.79962982 51.77514648 57.78442383 C52.1815184 58.91471512 52.58789032 60.04500641 53.00657654 61.20954895 C53.69121279 63.13264019 54.35447644 65.06342931 55 67 C58.12295427 59.44674641 60.86626743 51.79435869 63.51171875 44.0625 C64.13225883 42.25966553 64.13225883 42.25966553 64.76533508 40.42041016 C65.85329817 37.25886735 66.93928367 34.0966617 68.02404785 30.934021 C69.56114803 26.45323963 71.10063339 21.9732808 72.64179993 17.49389648 C73.46015044 15.11500581 74.27707726 12.73562482 75.092453 10.35571289 C75.64356499 8.75264282 75.64356499 8.75264282 76.20581055 7.1171875 C76.52905807 6.17472168 76.8523056 5.23225586 77.18534851 4.26123047 C78 2 78 2 79 0 C88.57 0 98.14 0 108 0 C106.18876529 6.03744903 104.39764106 11.89522898 102.1640625 17.7578125 C101.89242279 18.47947601 101.62078308 19.20113953 101.34091187 19.94467163 C100.4387781 22.33932398 99.53196418 24.7321734 98.625 27.125 C97.63509347 29.74633506 96.64621195 32.36805535 95.65740967 34.98980713 C94.94332593 36.88298143 94.22883729 38.77600305 93.51397705 40.66888428 C90.51623351 48.61234421 87.54873579 56.56688786 84.5859375 64.5234375 C83.4184506 67.65466259 82.25028005 70.78563264 81.08191109 73.9165287 C79.93517266 76.99011537 78.7903857 80.06440736 77.64825439 83.13970947 C59.38884069 132.28802777 59.38884069 132.28802777 44.046875 141.125 C38.30401281 143.72177247 32.7991959 144.1560967 26.5625 144.1875 C24.64630859 144.20876953 24.64630859 144.20876953 22.69140625 144.23046875 C19.09718029 144.00606734 16.33803042 143.30528856 13 142 C12.81548975 126.25512528 12.81548975 126.25512528 14 119 C15.64548828 119.05220703 15.64548828 119.05220703 17.32421875 119.10546875 C18.77863045 119.13361865 20.2330588 119.16091752 21.6875 119.1875 C22.40873047 119.21263672 23.12996094 119.23777344 23.87304688 119.26367188 C28.49035671 119.32692269 31.45167644 119.0263285 35 116 C36.56028731 113.76855969 37.78309045 111.77287663 39 109.375 C39.33644531 108.79621094 39.67289063 108.21742188 40.01953125 107.62109375 C41.33285417 105.06709982 42.17787371 102.87737873 41.59706116 100.01246643 C41.34468185 99.31298386 41.09230255 98.61350128 40.83227539 97.89282227 C40.54675812 97.10089478 40.26124084 96.30896729 39.96707153 95.49304199 C38.31981851 91.24654024 36.55772309 87.05764446 34.74609375 82.87890625 C34.33248596 81.91674194 33.91887817 80.95457764 33.49273682 79.96325684 C32.60480329 77.89896935 31.71519883 75.83539992 30.82406616 73.77249146 C29.42264237 70.52810362 28.0258047 67.28177554 26.63012695 64.03491211 C23.29621247 56.28166989 19.95468899 48.5317152 16.61206055 40.78222656 C14.03159392 34.79958306 11.45352945 28.81591976 8.87942505 22.83053589 C7.70113093 20.09415542 6.51850839 17.35967283 5.33569336 14.62524414 C4.62332701 12.97030442 3.91115711 11.31528013 3.19921875 9.66015625 C2.87213928 8.90730347 2.54505981 8.15445068 2.20806885 7.37878418 C0 2.22768474 0 2.22768474 0 0 Z " fill="#029573" transform="translate(701,698)"/>
<path d="M0 0 C9.24 0 18.48 0 28 0 C28 8.91 28 17.82 28 27 C36.58 27 45.16 27 54 27 C54.87630759 34.88676831 55.07664396 42.105672 55 50 C46.09 50 37.18 50 28 50 C28.0969659 56.88713069 28.19971853 63.77366406 28.31738281 70.66040039 C28.35564716 73.00279473 28.39050446 75.34524733 28.421875 77.68774414 C28.46758025 81.056364 28.52556661 84.42458373 28.5859375 87.79296875 C28.59748871 88.83897751 28.60903992 89.88498627 28.62094116 90.96269226 C28.64081085 91.94333145 28.66068054 92.92397064 28.68115234 93.93432617 C28.69447601 94.79370285 28.70779968 95.65307953 28.7215271 96.53849792 C29.04083582 99.36095958 29.71836844 101.4660986 31 104 C34.20406462 106.13604308 34.99600747 106.24208908 38.66796875 106.1953125 C39.47258545 106.19031738 40.27720215 106.18532227 41.10620117 106.18017578 C42.12302979 106.16196777 43.1398584 106.14375977 44.1875 106.125 C47.425625 106.08375 50.66375 106.0425 54 106 C54.33 112.6 54.66 119.2 55 126 C47.36936486 128.86148818 42.93477218 129.49112515 35.125 129.4375 C33.58779297 129.4674707 33.58779297 129.4674707 32.01953125 129.49804688 C22.07281624 129.49172749 14.00595736 126.85646811 6.69140625 120 C1.76530804 114.17514484 -0.13069728 106.98401493 -0.11352539 99.49707031 C-0.11344986 98.39623108 -0.11337433 97.29539185 -0.11329651 96.16119385 C-0.10813522 94.97878113 -0.10297394 93.79636841 -0.09765625 92.578125 C-0.0962413 91.36300232 -0.09482635 90.14787964 -0.09336853 88.89593506 C-0.08776988 85.01393169 -0.0752176 81.13198594 -0.0625 77.25 C-0.05748483 74.61849042 -0.05292195 71.98697993 -0.04882812 69.35546875 C-0.03780088 62.90362362 -0.02053714 56.45182158 0 50 C-5.94 50 -11.88 50 -18 50 C-18 42.41 -18 34.82 -18 27 C-12.06 27 -6.12 27 0 27 C0 18.09 0 9.18 0 0 Z " fill="#029573" transform="translate(594,671)"/>
<path d="M0 0 C8.91 0 17.82 0 27 0 C27 46.53 27 93.06 27 141 C18.09 141 9.18 141 0 141 C0 94.47 0 47.94 0 0 Z " fill="#009472" transform="translate(665,658)"/>
<path d="M0 0 C5.25095206 3.14463796 9.16638691 7.36030128 11.51171875 13.0546875 C12.27015663 19.72188565 12.41307153 26.42968387 8.921875 32.3359375 C5.59439884 36.39158711 1.47623438 39.39984896 -3.48828125 41.0546875 C-9.75601585 41.5663393 -15.14676076 41.74288022 -20.48828125 38.0546875 C-26.47880151 32.62142494 -29.93681417 27.92598005 -30.86328125 19.7421875 C-30.1970148 13.19056746 -27.97301514 8.01232921 -22.98828125 3.6171875 C-16.35080674 -1.67770694 -8.12323005 -3.08606228 0 0 Z " fill="#029573" transform="translate(535.48828125,305.9453125)"/>
<path d="M0 0 C5.86562257 3.38095847 10.49924329 8.72819862 12.64453125 15.1640625 C13.23515538 21.89717756 12.01959075 27.26264267 8.64453125 33.1640625 C4.65265633 37.76134025 0.13147068 40.66890668 -5.96875 41.53515625 C-12.79835567 41.70317839 -17.13385935 40.65563646 -22.35546875 36.1640625 C-26.81043427 31.5886925 -29.44843111 26.26240531 -29.85546875 19.8515625 C-29.6110731 13.63541237 -27.084133 7.77331037 -22.5703125 3.45703125 C-16.03128161 -1.36047134 -7.7648884 -2.75569837 0 0 Z " fill="#029573" transform="translate(461.35546875,305.8359375)"/>
<path d="M0 0 C4.88715952 2.05192586 7.67360951 5.27959139 10 10 C10.80578221 15.80018007 10.8194633 21.20348431 8.375 26.5625 C4.09326164 30.95691569 -0.02058241 33.70790024 -6.1875 34.3125 C-12.13801305 33.82475303 -16.32539903 31.76047794 -20.4375 27.4375 C-23.72950004 22.30197994 -23.61069794 16.92037721 -23 11 C-18.0550949 0.92704516 -10.48357851 -1.19314385 0 0 Z " fill="#039472" transform="translate(537,424)"/>
<path d="M0 0 C4.98669007 2.49334503 8.49675474 5.99350949 11 11 C11.76875531 17.52343789 11.57051663 22.92831156 7.609375 28.3359375 C4.19638469 31.86490321 0.63321723 33.82593988 -4.3046875 34.15234375 C-9.47119131 33.81312885 -13.01548355 32.42853741 -17 29 C-20.65421166 24.16063861 -22.41963312 20.34435826 -22.3515625 14.1953125 C-21.56324753 9.27272348 -18.48395043 5.35301363 -14.875 2.0625 C-10.16474573 -0.60664409 -5.26488431 -0.59137546 0 0 Z " fill="#029472" transform="translate(595,424)"/>
<path d="M0 0 C0.85985803 12.87876255 0.85985803 12.87876255 -1.9375 16.5 C-8.75046427 22.06160349 -15.02414965 25.13772706 -23.875 25.25 C-25.08929687 25.27578125 -26.30359375 25.3015625 -27.5546875 25.328125 C-31.26808278 24.97446831 -33.06474277 24.25141594 -36 22 C-38.71112347 17.93331479 -38.86409582 14.77234573 -38 10 C-36.18629832 6.135705 -33.65404401 3.8607155 -29.890625 1.90234375 C-20.46298852 -1.32527065 -9.82643672 -0.26683681 0 0 Z " fill="#F6F4EA" transform="translate(538,755)"/>
<path d="M0 0 C4.1117256 -0.02465746 8.22342278 -0.04283959 12.33520508 -0.05493164 C13.73495228 -0.0599708 15.1346942 -0.06680216 16.53442383 -0.07543945 C18.54245777 -0.0875232 20.55052957 -0.09269807 22.55859375 -0.09765625 C24.37315063 -0.10551147 24.37315063 -0.10551147 26.22436523 -0.11352539 C29 0 29 0 30 1 C30.08758003 2.99964982 30.10696576 5.0023611 30.09765625 7.00390625 C30.09443359 8.21884766 30.09121094 9.43378906 30.08789062 10.68554688 C30.07532227 12.60463867 30.07532227 12.60463867 30.0625 14.5625 C30.05798828 15.84576172 30.05347656 17.12902344 30.04882812 18.45117188 C30.03699555 21.6341342 30.01905944 24.81707274 30 28 C38.25 28 46.5 28 55 28 C55 28.33 55 28.66 55 29 C46.42 29 37.84 29 29 29 C29 20.09 29 11.18 29 2 C19.76 2 10.52 2 1 2 C1 10.91 1 19.82 1 29 C-4.94 29 -10.88 29 -17 29 C-17 36.59 -17 44.18 -17 52 C-11.06 52 -5.12 52 1 52 C1 70.81 1 89.62 1 109 C0.67 109 0.34 109 0 109 C-0.95441142 102.60643423 -1.13143681 96.39594836 -1.09765625 89.9375 C-1.0962413 88.90560547 -1.09482635 87.87371094 -1.09336853 86.81054688 C-1.08780642 83.54033411 -1.07526102 80.2701918 -1.0625 77 C-1.0574801 74.77213641 -1.05291805 72.54427174 -1.04882812 70.31640625 C-1.03784942 64.87758045 -1.02114938 59.43879526 -1 54 C-2.14339844 54.01160156 -3.28679688 54.02320313 -4.46484375 54.03515625 C-5.95572754 54.04453288 -7.44661309 54.05363321 -8.9375 54.0625 C-9.69224609 54.07087891 -10.44699219 54.07925781 -11.22460938 54.08789062 C-13.14994313 54.09652441 -15.07535581 54.05224333 -17 54 C-18 53 -18 53 -18.11352539 50.59155273 C-18.10828857 49.54942627 -18.10305176 48.5072998 -18.09765625 47.43359375 C-18.09443359 46.30888672 -18.09121094 45.18417969 -18.08789062 44.02539062 C-18.07951172 42.84138672 -18.07113281 41.65738281 -18.0625 40.4375 C-18.05798828 39.24962891 -18.05347656 38.06175781 -18.04882812 36.83789062 C-18.03699686 33.89190588 -18.01906076 30.94594684 -18 28 C-12.39 28 -6.78 28 -1 28 C-1.01160156 26.14632812 -1.02320313 24.29265625 -1.03515625 22.3828125 C-1.04453326 19.96354267 -1.05363356 17.54427176 -1.0625 15.125 C-1.07087891 13.90167969 -1.07925781 12.67835938 -1.08789062 11.41796875 C-1.09111328 10.25136719 -1.09433594 9.08476563 -1.09765625 7.8828125 C-1.10551147 6.26463623 -1.10551147 6.26463623 -1.11352539 4.61376953 C-1 2 -1 2 0 0 Z " fill="#F8FBF7" transform="translate(593,669)"/>
<path d="M0 0 C10.23 0 20.46 0 31 0 C31.66 2.97 32.32 5.94 33 9 C31 7 31 7 30 2 C16.635 2.495 16.635 2.495 3 3 C2.67 3.99 2.34 4.98 2 6 C1.34 4.02 0.68 2.04 0 0 Z " fill="#218E6D" transform="translate(701,698)"/>
<path d="M0 0 C9.57 0 19.14 0 29 0 C28.01 2.97 27.02 5.94 26 9 C25.67 8.01 25.34 7.02 25 6 C25.66 4.68 26.32 3.36 27 2 C13.635 2.495 13.635 2.495 0 3 C0 2.01 0 1.02 0 0 Z " fill="#21906D" transform="translate(780,698)"/>
<path d="M0 0 C0 4.95 0 9.9 0 15 C-0.33 15 -0.66 15 -1 15 C-1.33 10.71 -1.66 6.42 -2 2 C-2.99 2.165 -3.98 2.33 -5 2.5 C-9.02732942 3.08474517 -12.93474623 3.07132024 -17 3 C-17 2.67 -17 2.34 -17 2 C-14.91727106 1.66291092 -12.83378963 1.33046884 -10.75 1 C-9.58984375 0.814375 -8.4296875 0.62875 -7.234375 0.4375 C-4 0 -4 0 0 0 Z " fill="#067D57" transform="translate(648,777)"/>
<path d="M0 0 C0.66 0.33 1.32 0.66 2 1 C0.8553125 2.5778125 0.8553125 2.5778125 -0.3125 4.1875 C-1.8504033 6.32419478 -3.21394644 8.3833207 -4.5 10.6875 C-6.28397105 13.43778871 -8.36680424 15.07847877 -11 17 C-9.52869627 12.6426774 -7.16919385 9.28065866 -4.375 5.6875 C-3.95476562 5.13771484 -3.53453125 4.58792969 -3.1015625 4.02148438 C-2.07279961 2.67707832 -1.0370991 1.33798587 0 0 Z " fill="#09845F" transform="translate(339,257)"/>
<path d="M0 0 C4.875 1.75 4.875 1.75 6 4 C3.69 4 1.38 4 -1 4 C-1 4.66 -1 5.32 -1 6 C-2.32 6.33 -3.64 6.66 -5 7 C-1.125 1.125 -1.125 1.125 0 0 Z " fill="#0C8763" transform="translate(324,758)"/>
<path d="M0 0 C0 3 0 3 -1.6875 5.125 C-4.20933322 7.16972964 -5.81390075 7.64598897 -9 8 C-6.14723863 5.06799526 -3.34920216 2.35684596 0 0 Z " fill="#F1F7F1" transform="translate(645,561)"/>
<path d="M0 0 C0.66 0.99 1.32 1.98 2 3 C1.21069203 5.48935591 0.1651105 7.669779 -1 10 C-1.66 10 -2.32 10 -3 10 C-2.01 6.7 -1.02 3.4 0 0 Z " fill="#ECF4ED" transform="translate(803,713)"/>
<path d="M0 0 C5.94 0.99 5.94 0.99 12 2 C12 2.33 12 2.66 12 3 C8.7 3.33 5.4 3.66 2 4 C1.34 2.68 0.68 1.36 0 0 Z " fill="#037D57" transform="translate(716,817)"/>
<path d="M0 0 C3.93673644 1.31224548 6.22719294 2.91910327 9 6 C8.01 6.33 7.02 6.66 6 7 C4 6 4 6 3 3 C1.50014391 1.33289654 1.50014391 1.33289654 0 0 Z " fill="#108966" transform="translate(641,216)"/>
<path d="M0 0 C0 0.66 0 1.32 0 2 C-1.98 2.33 -3.96 2.66 -6 3 C-6 2.01 -6 1.02 -6 0 C-3 -1 -3 -1 0 0 Z " fill="#DEEEE5" transform="translate(388,449)"/>
</svg>
